<mxfile host="app.diagrams.net" modified="2023-11-20T18:29:17.941Z" agent="Mozilla/5.0 (Windows NT 10.0; Win64; x64) AppleWebKit/537.36 (KHTML, like Gecko) Chrome/119.0.0.0 Safari/537.36" etag="livcSA0cgzwaaPBCoHch" version="22.1.3" type="device">
  <diagram name="Page-1" id="929967ad-93f9-6ef4-fab6-5d389245f69c">
    <mxGraphModel dx="1615" dy="815" grid="1" gridSize="10" guides="1" tooltips="1" connect="1" arrows="1" fold="1" page="1" pageScale="1.5" pageWidth="1169" pageHeight="826" background="none" math="0" shadow="0">
      <root>
        <mxCell id="0" style=";html=1;" />
        <mxCell id="1" style=";html=1;" parent="0" />
        <mxCell id="1672d66443f91eb5-23" value="Anwendungsfälle" style="text;strokeColor=none;fillColor=none;html=1;fontSize=24;fontStyle=1;verticalAlign=middle;align=center;" parent="1" vertex="1">
          <mxGeometry x="120" y="40" width="1510" height="40" as="geometry" />
        </mxCell>
        <mxCell id="UBSjtmPec1BVyTYs1QZE-1" value="Verwalter" style="shape=umlActor;verticalLabelPosition=bottom;verticalAlign=top;html=1;outlineConnect=0;" parent="1" vertex="1">
          <mxGeometry x="110" y="370" width="30" height="60" as="geometry" />
        </mxCell>
        <mxCell id="UBSjtmPec1BVyTYs1QZE-2" value="Ausleiher" style="shape=umlActor;verticalLabelPosition=bottom;verticalAlign=top;html=1;outlineConnect=0;" parent="1" vertex="1">
          <mxGeometry x="110" y="510" width="30" height="60" as="geometry" />
        </mxCell>
        <mxCell id="UBSjtmPec1BVyTYs1QZE-3" value="" style="whiteSpace=wrap;html=1;" parent="1" vertex="1">
          <mxGeometry x="290" y="120" width="600" height="980" as="geometry" />
        </mxCell>
        <mxCell id="UBSjtmPec1BVyTYs1QZE-12" value="" style="endArrow=none;html=1;rounded=0;" parent="1" target="UBSjtmPec1BVyTYs1QZE-18" edge="1">
          <mxGeometry width="50" height="50" relative="1" as="geometry">
            <mxPoint x="140" y="400" as="sourcePoint" />
            <mxPoint x="405.9117933223524" y="237.13120410932152" as="targetPoint" />
          </mxGeometry>
        </mxCell>
        <mxCell id="UBSjtmPec1BVyTYs1QZE-13" value="Publikation anzeigen" style="ellipse;whiteSpace=wrap;html=1;" parent="1" vertex="1">
          <mxGeometry x="470" y="590" width="120" height="80" as="geometry" />
        </mxCell>
        <mxCell id="UBSjtmPec1BVyTYs1QZE-14" value="" style="endArrow=none;html=1;rounded=0;" parent="1" target="UBSjtmPec1BVyTYs1QZE-13" edge="1">
          <mxGeometry width="50" height="50" relative="1" as="geometry">
            <mxPoint x="150" y="540" as="sourcePoint" />
            <mxPoint x="260" y="490" as="targetPoint" />
          </mxGeometry>
        </mxCell>
        <mxCell id="UBSjtmPec1BVyTYs1QZE-15" value="" style="endArrow=none;html=1;rounded=0;" parent="1" target="UBSjtmPec1BVyTYs1QZE-13" edge="1">
          <mxGeometry width="50" height="50" relative="1" as="geometry">
            <mxPoint x="140" y="400" as="sourcePoint" />
            <mxPoint x="411.441989450949" y="423.4958115559923" as="targetPoint" />
          </mxGeometry>
        </mxCell>
        <mxCell id="UBSjtmPec1BVyTYs1QZE-16" value="Publikation anlegen" style="ellipse;whiteSpace=wrap;html=1;" parent="1" vertex="1">
          <mxGeometry x="480" y="260" width="120" height="80" as="geometry" />
        </mxCell>
        <mxCell id="UBSjtmPec1BVyTYs1QZE-17" value="" style="endArrow=none;html=1;rounded=0;" parent="1" target="UBSjtmPec1BVyTYs1QZE-16" edge="1">
          <mxGeometry width="50" height="50" relative="1" as="geometry">
            <mxPoint x="140" y="400" as="sourcePoint" />
            <mxPoint x="421.441989450949" y="433.4958115559923" as="targetPoint" />
          </mxGeometry>
        </mxCell>
        <mxCell id="UBSjtmPec1BVyTYs1QZE-18" value="Publikation editieren" style="ellipse;whiteSpace=wrap;html=1;" parent="1" vertex="1">
          <mxGeometry x="480" y="150" width="120" height="80" as="geometry" />
        </mxCell>
        <mxCell id="UBSjtmPec1BVyTYs1QZE-19" value="Publikation löschen" style="ellipse;whiteSpace=wrap;html=1;" parent="1" vertex="1">
          <mxGeometry x="320" y="140" width="120" height="80" as="geometry" />
        </mxCell>
        <mxCell id="UBSjtmPec1BVyTYs1QZE-20" value="" style="endArrow=none;html=1;rounded=0;" parent="1" target="UBSjtmPec1BVyTYs1QZE-19" edge="1">
          <mxGeometry width="50" height="50" relative="1" as="geometry">
            <mxPoint x="140" y="400" as="sourcePoint" />
            <mxPoint x="431.441989450949" y="443.4958115559923" as="targetPoint" />
          </mxGeometry>
        </mxCell>
        <mxCell id="UBSjtmPec1BVyTYs1QZE-21" value="Publikationen suchen" style="ellipse;whiteSpace=wrap;html=1;" parent="1" vertex="1">
          <mxGeometry x="600" y="740" width="120" height="80" as="geometry" />
        </mxCell>
        <mxCell id="UBSjtmPec1BVyTYs1QZE-22" value="" style="endArrow=none;html=1;rounded=0;" parent="1" target="UBSjtmPec1BVyTYs1QZE-21" edge="1">
          <mxGeometry width="50" height="50" relative="1" as="geometry">
            <mxPoint x="150" y="540" as="sourcePoint" />
            <mxPoint x="441.441989450949" y="453.4958115559923" as="targetPoint" />
          </mxGeometry>
        </mxCell>
        <mxCell id="UBSjtmPec1BVyTYs1QZE-23" value="" style="endArrow=none;html=1;rounded=0;" parent="1" target="UBSjtmPec1BVyTYs1QZE-21" edge="1">
          <mxGeometry width="50" height="50" relative="1" as="geometry">
            <mxPoint x="140" y="400" as="sourcePoint" />
            <mxPoint x="451.441989450949" y="463.4958115559923" as="targetPoint" />
          </mxGeometry>
        </mxCell>
        <mxCell id="UBSjtmPec1BVyTYs1QZE-24" value="Publikation ausleihen" style="ellipse;whiteSpace=wrap;html=1;" parent="1" vertex="1">
          <mxGeometry x="450" y="740" width="120" height="80" as="geometry" />
        </mxCell>
        <mxCell id="UBSjtmPec1BVyTYs1QZE-25" value="" style="endArrow=none;html=1;rounded=0;" parent="1" target="UBSjtmPec1BVyTYs1QZE-24" edge="1">
          <mxGeometry width="50" height="50" relative="1" as="geometry">
            <mxPoint x="150" y="540" as="sourcePoint" />
            <mxPoint x="461.441989450949" y="473.4958115559923" as="targetPoint" />
          </mxGeometry>
        </mxCell>
        <mxCell id="UBSjtmPec1BVyTYs1QZE-26" value="Publikation verlängern" style="ellipse;whiteSpace=wrap;html=1;" parent="1" vertex="1">
          <mxGeometry x="450" y="840" width="120" height="80" as="geometry" />
        </mxCell>
        <mxCell id="UBSjtmPec1BVyTYs1QZE-30" value="" style="endArrow=none;html=1;rounded=0;" parent="1" target="UBSjtmPec1BVyTYs1QZE-26" edge="1">
          <mxGeometry width="50" height="50" relative="1" as="geometry">
            <mxPoint x="150" y="540" as="sourcePoint" />
            <mxPoint x="471.441989450949" y="483.4958115559923" as="targetPoint" />
          </mxGeometry>
        </mxCell>
        <mxCell id="3l0V7gdWWxvvtZ06A2Cy-3" value="optional" style="edgeLabel;html=1;align=center;verticalAlign=middle;resizable=0;points=[];" parent="UBSjtmPec1BVyTYs1QZE-30" connectable="0" vertex="1">
          <mxGeometry x="0.554" y="2" relative="1" as="geometry">
            <mxPoint x="-1" as="offset" />
          </mxGeometry>
        </mxCell>
        <mxCell id="UBSjtmPec1BVyTYs1QZE-31" value="Ausleihvorgänge einsehen" style="ellipse;whiteSpace=wrap;html=1;" parent="1" vertex="1">
          <mxGeometry x="470" y="380" width="120" height="80" as="geometry" />
        </mxCell>
        <mxCell id="UBSjtmPec1BVyTYs1QZE-32" value="Publikation zurückgeben" style="ellipse;whiteSpace=wrap;html=1;" parent="1" vertex="1">
          <mxGeometry x="470" y="980" width="120" height="80" as="geometry" />
        </mxCell>
        <mxCell id="UBSjtmPec1BVyTYs1QZE-33" value="" style="endArrow=none;html=1;rounded=0;" parent="1" target="UBSjtmPec1BVyTYs1QZE-32" edge="1">
          <mxGeometry width="50" height="50" relative="1" as="geometry">
            <mxPoint x="150" y="540" as="sourcePoint" />
            <mxPoint x="481.441989450949" y="493.4958115559923" as="targetPoint" />
          </mxGeometry>
        </mxCell>
        <mxCell id="UBSjtmPec1BVyTYs1QZE-34" value="" style="endArrow=none;html=1;rounded=0;" parent="1" target="UBSjtmPec1BVyTYs1QZE-31" edge="1">
          <mxGeometry width="50" height="50" relative="1" as="geometry">
            <mxPoint x="150" y="540" as="sourcePoint" />
            <mxPoint x="491.441989450949" y="503.4958115559923" as="targetPoint" />
          </mxGeometry>
        </mxCell>
        <mxCell id="UBSjtmPec1BVyTYs1QZE-35" value="" style="endArrow=none;html=1;rounded=0;" parent="1" target="UBSjtmPec1BVyTYs1QZE-31" edge="1">
          <mxGeometry width="50" height="50" relative="1" as="geometry">
            <mxPoint x="140" y="400" as="sourcePoint" />
            <mxPoint x="501.441989450949" y="513.4958115559923" as="targetPoint" />
          </mxGeometry>
        </mxCell>
        <mxCell id="UBSjtmPec1BVyTYs1QZE-36" value="optional" style="edgeLabel;html=1;align=center;verticalAlign=middle;resizable=0;points=[];" parent="UBSjtmPec1BVyTYs1QZE-35" vertex="1" connectable="0">
          <mxGeometry x="0.7595" y="-2" relative="1" as="geometry">
            <mxPoint as="offset" />
          </mxGeometry>
        </mxCell>
        <mxCell id="UBSjtmPec1BVyTYs1QZE-37" value="System" style="shape=umlActor;verticalLabelPosition=bottom;verticalAlign=top;html=1;outlineConnect=0;" parent="1" vertex="1">
          <mxGeometry x="1000" y="990" width="30" height="60" as="geometry" />
        </mxCell>
        <mxCell id="UBSjtmPec1BVyTYs1QZE-40" value="Ausleiher mahnen" style="ellipse;whiteSpace=wrap;html=1;" parent="1" vertex="1">
          <mxGeometry x="600" y="310" width="120" height="80" as="geometry" />
        </mxCell>
        <mxCell id="UBSjtmPec1BVyTYs1QZE-41" value="" style="endArrow=none;html=1;rounded=0;" parent="1" target="UBSjtmPec1BVyTYs1QZE-40" edge="1">
          <mxGeometry width="50" height="50" relative="1" as="geometry">
            <mxPoint x="140" y="400" as="sourcePoint" />
            <mxPoint x="521.441989450949" y="533.4958115559923" as="targetPoint" />
          </mxGeometry>
        </mxCell>
        <mxCell id="UBSjtmPec1BVyTYs1QZE-42" value="" style="endArrow=classic;dashed=1;html=1;dashPattern=1 3;strokeWidth=2;rounded=0;entryX=1;entryY=0.5;entryDx=0;entryDy=0;" parent="1" source="UBSjtmPec1BVyTYs1QZE-44" target="UBSjtmPec1BVyTYs1QZE-32" edge="1">
          <mxGeometry width="50" height="50" relative="1" as="geometry">
            <mxPoint x="860" y="440" as="sourcePoint" />
            <mxPoint x="910" y="390" as="targetPoint" />
          </mxGeometry>
        </mxCell>
        <mxCell id="UBSjtmPec1BVyTYs1QZE-43" value="&amp;lt;&amp;lt;extends&amp;gt;&amp;gt;" style="edgeLabel;html=1;align=center;verticalAlign=middle;resizable=0;points=[];" parent="UBSjtmPec1BVyTYs1QZE-42" vertex="1" connectable="0">
          <mxGeometry x="-0.18" y="2" relative="1" as="geometry">
            <mxPoint x="-7" y="-12" as="offset" />
          </mxGeometry>
        </mxCell>
        <mxCell id="UBSjtmPec1BVyTYs1QZE-47" value="[Mahnung existiert]" style="edgeLabel;html=1;align=center;verticalAlign=middle;resizable=0;points=[];" parent="UBSjtmPec1BVyTYs1QZE-42" vertex="1" connectable="0">
          <mxGeometry x="0.0924" y="3" relative="1" as="geometry">
            <mxPoint x="11" y="-33" as="offset" />
          </mxGeometry>
        </mxCell>
        <mxCell id="UBSjtmPec1BVyTYs1QZE-44" value="Mahnung abschließen" style="ellipse;whiteSpace=wrap;html=1;" parent="1" vertex="1">
          <mxGeometry x="720" y="980" width="120" height="80" as="geometry" />
        </mxCell>
        <mxCell id="UBSjtmPec1BVyTYs1QZE-46" value="" style="endArrow=none;html=1;rounded=0;" parent="1" source="UBSjtmPec1BVyTYs1QZE-44" edge="1">
          <mxGeometry width="50" height="50" relative="1" as="geometry">
            <mxPoint x="1160" y="660" as="sourcePoint" />
            <mxPoint x="960" y="1020" as="targetPoint" />
          </mxGeometry>
        </mxCell>
        <mxCell id="UBSjtmPec1BVyTYs1QZE-48" value="Verlust melden" style="ellipse;whiteSpace=wrap;html=1;" parent="1" vertex="1">
          <mxGeometry x="640" y="140" width="120" height="80" as="geometry" />
        </mxCell>
        <mxCell id="UBSjtmPec1BVyTYs1QZE-49" value="" style="endArrow=none;html=1;rounded=0;" parent="1" target="UBSjtmPec1BVyTYs1QZE-48" edge="1">
          <mxGeometry width="50" height="50" relative="1" as="geometry">
            <mxPoint x="140" y="400" as="sourcePoint" />
            <mxPoint x="210" y="680" as="targetPoint" />
          </mxGeometry>
        </mxCell>
        <mxCell id="UBSjtmPec1BVyTYs1QZE-52" value="Stammdaten verwalten" style="ellipse;whiteSpace=wrap;html=1;" parent="1" vertex="1">
          <mxGeometry x="470" y="490" width="120" height="80" as="geometry" />
        </mxCell>
        <mxCell id="UBSjtmPec1BVyTYs1QZE-54" value="" style="endArrow=none;html=1;rounded=0;" parent="1" target="UBSjtmPec1BVyTYs1QZE-52" edge="1">
          <mxGeometry width="50" height="50" relative="1" as="geometry">
            <mxPoint x="140" y="400" as="sourcePoint" />
            <mxPoint x="120" y="480" as="targetPoint" />
          </mxGeometry>
        </mxCell>
      </root>
    </mxGraphModel>
  </diagram>
</mxfile>
